<svg xmlns="http://www.w3.org/2000/svg" version="1.1" xmlns:xlink="http://www.w3.org/1999/xlink" xmlns:svgjs="http://svgjs.com/svgjs" width="1920" height="1080" preserveAspectRatio="none" viewBox="0 0 1920 1080"><g mask="url(&quot;#SvgjsMask1074&quot;)" fill="none"><rect width="1920" height="1080" x="0" y="0" fill="rgba(194, 212, 221, 1)"></rect><path d="M0,814.628C163.592,824.792,330.6,816.306,476.066,740.773C629.412,661.149,754.775,534.383,834.719,381.204C917.287,222.998,991.557,34.361,932.661,-134.096C874.754,-299.724,659.905,-339.952,538.352,-466.485C425.741,-583.711,391.95,-769.851,248.495,-846.296C94.502,-928.356,-93.014,-935.656,-262.24,-893.107C-435.01,-849.667,-585.052,-742.67,-701.126,-607.529C-816.875,-472.766,-928.904,-308.922,-916.197,-131.729C-903.869,40.181,-723.674,141.974,-636.707,290.775C-561.205,419.96,-555.057,588.82,-439.508,683.888C-319.036,783.007,-155.707,804.954,0,814.628" fill="#b5cbd6"></path><path d="M1920 1569.565C2012.113 1558.089 2093.27 1519.04 2178.459 1482.17 2281.055 1437.766 2398.181 1416.6979999999999 2470.391 1331.355 2552.408 1234.421 2641.376 1102.598 2601.667 981.991 2560.705 857.578 2369.314 863.981 2283.835 764.735 2197.921 664.9839999999999 2241.423 452.6 2114.77 416.67600000000004 1987.625 380.61199999999997 1913.124 587.501 1785.965 623.518 1656.69 660.134 1496.617 538.544 1391.051 621.663 1289.7469999999998 701.427 1310.6280000000002 864.412 1316.425 993.219 1321.495 1105.883 1368.565 1208.107 1421.915 1307.468 1472.239 1401.192 1522.408 1502.6399999999999 1616.55 1552.1779999999999 1708.063 1600.333 1817.383 1582.35 1920 1569.565" fill="#cfdde4"></path></g><defs><mask id="SvgjsMask1074"><rect width="1920" height="1080" fill="#ffffff"></rect></mask></defs></svg>