<svg xmlns="http://www.w3.org/2000/svg" version="1.1" xmlns:xlink="http://www.w3.org/1999/xlink" xmlns:svgjs="http://svgjs.com/svgjs" width="1920" height="1080" preserveAspectRatio="none" viewBox="0 0 1920 1080"><g mask="url(&quot;#SvgjsMask1086&quot;)" fill="none"><rect width="1920" height="1080" x="0" y="0" fill="rgba(194, 212, 221, 1)"></rect><path d="M0,743.461C148.95,750.532,306.206,752.261,432.621,673.171C559.621,593.715,641.141,456.347,686.911,313.702C729.689,180.385,683.974,42.187,679.993,-97.768C675.389,-259.627,745.179,-434.614,661.68,-573.349C575.861,-715.938,401.355,-776.221,242.261,-825.065C81.701,-874.358,-107.598,-941.532,-250.588,-853.424C-396.082,-763.773,-361.093,-537.205,-455.786,-394.941C-532.952,-279.009,-711.132,-241.952,-747.138,-107.422C-783.533,28.56,-698.416,164.204,-639.675,292.13C-581.045,419.813,-521.808,552.313,-407.006,633.313C-289.791,716.015,-143.293,736.659,0,743.461" fill="#b5cbd6"></path><path d="M1920 1641.0929999999998C2027.383 1621.864 2132.554 1610.7269999999999 2231.357 1564.481 2342.573 1512.425 2469.614 1465.787 2526.753 1357.095 2584.565 1247.123 2543.518 1115.698 2532.327 991.961 2520.4880000000003 861.062 2539.645 716.6990000000001 2459.419 612.591 2378.131 507.10400000000004 2233.967 483.09900000000005 2107.663 440.879 1976.554 397.053 1839.699 316.42600000000004 1709.114 361.788 1579.046 406.971 1538.621 567.354 1447.194 670.312 1354.279 774.9449999999999 1201.5549999999998 836.0889999999999 1167.425 971.796 1132.743 1109.697 1205.722 1249.981 1269.4389999999999 1377.101 1331.346 1500.6100000000001 1399.644 1638.545 1527.66 1690.493 1652.324 1741.0810000000001 1787.57 1664.807 1920 1641.0929999999998" fill="#cfdde4"></path></g><defs><mask id="SvgjsMask1086"><rect width="1920" height="1080" fill="#ffffff"></rect></mask></defs></svg>